<svg width="286" height="458" viewBox="0 0 286 458" fill="none" xmlns="http://www.w3.org/2000/svg">
<path d="M1.332 18V5.4H9.126V6.642H2.844V11.034H8.586V12.258H2.844V16.758H9.126V18H1.332ZM11.4022 18V9.072H12.7702L12.8782 10.368C13.1662 9.888 13.5502 9.516 14.0302 9.252C14.5102 8.988 15.0502 8.856 15.6502 8.856C16.3582 8.856 16.9642 9 17.4682 9.288C17.9842 9.576 18.3802 10.014 18.6562 10.602C18.9682 10.062 19.3942 9.636 19.9342 9.324C20.4862 9.012 21.0802 8.856 21.7162 8.856C22.7842 8.856 23.6362 9.18 24.2722 9.828C24.9082 10.464 25.2262 11.448 25.2262 12.78V18H23.7322V12.942C23.7322 12.018 23.5462 11.322 23.1742 10.854C22.8022 10.386 22.2682 10.152 21.5722 10.152C20.8522 10.152 20.2522 10.434 19.7722 10.998C19.3042 11.55 19.0702 12.342 19.0702 13.374V18H17.5582V12.942C17.5582 12.018 17.3722 11.322 17.0002 10.854C16.6282 10.386 16.0942 10.152 15.3982 10.152C14.6902 10.152 14.0962 10.434 13.6162 10.998C13.1482 11.55 12.9142 12.342 12.9142 13.374V18H11.4022ZM27.5037 21.96V9.072H28.8717L29.0157 10.548C29.3037 10.116 29.7117 9.726 30.2397 9.378C30.7797 9.03 31.4637 8.856 32.2917 8.856C33.1797 8.856 33.9537 9.06 34.6137 9.468C35.2737 9.876 35.7837 10.434 36.1437 11.142C36.5157 11.85 36.7017 12.654 36.7017 13.554C36.7017 14.454 36.5157 15.258 36.1437 15.966C35.7837 16.662 35.2677 17.214 34.5957 17.622C33.9357 18.018 33.1617 18.216 32.2737 18.216C31.5417 18.216 30.8877 18.066 30.3117 17.766C29.7477 17.466 29.3157 17.046 29.0157 16.506V21.96H27.5037ZM32.1117 16.902C32.7117 16.902 33.2397 16.764 33.6957 16.488C34.1517 16.2 34.5117 15.804 34.7757 15.3C35.0397 14.796 35.1717 14.208 35.1717 13.536C35.1717 12.864 35.0397 12.276 34.7757 11.772C34.5117 11.268 34.1517 10.878 33.6957 10.602C33.2397 10.314 32.7117 10.17 32.1117 10.17C31.5117 10.17 30.9837 10.314 30.5277 10.602C30.0717 10.878 29.7117 11.268 29.4477 11.772C29.1837 12.276 29.0517 12.864 29.0517 13.536C29.0517 14.208 29.1837 14.796 29.4477 15.3C29.7117 15.804 30.0717 16.2 30.5277 16.488C30.9837 16.764 31.5117 16.902 32.1117 16.902ZM38.8065 18V5.04H40.3185V18H38.8065ZM46.8647 18.216C46.0247 18.216 45.2687 18.024 44.5967 17.64C43.9247 17.256 43.3907 16.716 42.9947 16.02C42.6107 15.312 42.4187 14.484 42.4187 13.536C42.4187 12.588 42.6167 11.766 43.0127 11.07C43.4087 10.362 43.9427 9.816 44.6147 9.432C45.2987 9.048 46.0607 8.856 46.9007 8.856C47.7407 8.856 48.4967 9.048 49.1687 9.432C49.8407 9.816 50.3687 10.362 50.7527 11.07C51.1487 11.766 51.3467 12.588 51.3467 13.536C51.3467 14.484 51.1487 15.312 50.7527 16.02C50.3567 16.716 49.8167 17.256 49.1327 17.64C48.4607 18.024 47.7047 18.216 46.8647 18.216ZM46.8647 16.92C47.3807 16.92 47.8607 16.794 48.3047 16.542C48.7487 16.29 49.1087 15.912 49.3847 15.408C49.6607 14.904 49.7987 14.28 49.7987 13.536C49.7987 12.792 49.6607 12.168 49.3847 11.664C49.1207 11.16 48.7667 10.782 48.3227 10.53C47.8787 10.278 47.4047 10.152 46.9007 10.152C46.3847 10.152 45.9047 10.278 45.4607 10.53C45.0167 10.782 44.6567 11.16 44.3807 11.664C44.1047 12.168 43.9667 12.792 43.9667 13.536C43.9667 14.28 44.1047 14.904 44.3807 15.408C44.6567 15.912 45.0107 16.29 45.4427 16.542C45.8867 16.794 46.3607 16.92 46.8647 16.92ZM53.7003 21.96L55.9143 17.136H55.3923L51.8463 9.072H53.4843L56.4363 16.02L59.5683 9.072H61.1343L55.2843 21.96H53.7003ZM65.9005 18.216C65.0485 18.216 64.2925 18.024 63.6325 17.64C62.9725 17.244 62.4505 16.698 62.0665 16.002C61.6945 15.306 61.5085 14.484 61.5085 13.536C61.5085 12.6 61.6945 11.784 62.0665 11.088C62.4385 10.38 62.9545 9.834 63.6145 9.45C64.2865 9.054 65.0605 8.856 65.9365 8.856C66.8005 8.856 67.5445 9.054 68.1685 9.45C68.8045 9.834 69.2905 10.344 69.6265 10.98C69.9625 11.616 70.1305 12.3 70.1305 13.032C70.1305 13.164 70.1245 13.296 70.1125 13.428C70.1125 13.56 70.1125 13.71 70.1125 13.878H63.0025C63.0385 14.562 63.1945 15.132 63.4705 15.588C63.7585 16.032 64.1125 16.368 64.5325 16.596C64.9645 16.824 65.4205 16.938 65.9005 16.938C66.5245 16.938 67.0465 16.794 67.4665 16.506C67.8865 16.218 68.1925 15.828 68.3845 15.336H69.8785C69.6385 16.164 69.1765 16.854 68.4925 17.406C67.8205 17.946 66.9565 18.216 65.9005 18.216ZM65.9005 10.134C65.1805 10.134 64.5385 10.356 63.9745 10.8C63.4225 11.232 63.1045 11.868 63.0205 12.708H68.6365C68.6005 11.904 68.3245 11.274 67.8085 10.818C67.2925 10.362 66.6565 10.134 65.9005 10.134ZM76.1486 18.216C75.2966 18.216 74.5406 18.024 73.8806 17.64C73.2206 17.244 72.6986 16.698 72.3146 16.002C71.9426 15.306 71.7566 14.484 71.7566 13.536C71.7566 12.6 71.9426 11.784 72.3146 11.088C72.6866 10.38 73.2026 9.834 73.8626 9.45C74.5346 9.054 75.3086 8.856 76.1846 8.856C77.0486 8.856 77.7926 9.054 78.4166 9.45C79.0526 9.834 79.5386 10.344 79.8746 10.98C80.2106 11.616 80.3786 12.3 80.3786 13.032C80.3786 13.164 80.3726 13.296 80.3606 13.428C80.3606 13.56 80.3606 13.71 80.3606 13.878H73.2506C73.2866 14.562 73.4426 15.132 73.7186 15.588C74.0066 16.032 74.3606 16.368 74.7806 16.596C75.2126 16.824 75.6686 16.938 76.1486 16.938C76.7726 16.938 77.2946 16.794 77.7146 16.506C78.1346 16.218 78.4406 15.828 78.6326 15.336H80.1266C79.8866 16.164 79.4246 16.854 78.7406 17.406C78.0686 17.946 77.2046 18.216 76.1486 18.216ZM76.1486 10.134C75.4286 10.134 74.7866 10.356 74.2226 10.8C73.6706 11.232 73.3526 11.868 73.2686 12.708H78.8846C78.8486 11.904 78.5726 11.274 78.0566 10.818C77.5406 10.362 76.9046 10.134 76.1486 10.134Z" fill="#F5F5F5"/>
<path d="M6.858 264.216C5.622 264.216 4.554 263.946 3.654 263.406C2.766 262.854 2.076 262.092 1.584 261.12C1.092 260.136 0.846 258.996 0.846 257.7C0.846 256.416 1.092 255.288 1.584 254.316C2.076 253.332 2.766 252.564 3.654 252.012C4.554 251.46 5.622 251.184 6.858 251.184C8.298 251.184 9.468 251.532 10.368 252.228C11.28 252.912 11.862 253.872 12.114 255.108H10.44C10.248 254.328 9.852 253.704 9.252 253.236C8.664 252.756 7.866 252.516 6.858 252.516C5.958 252.516 5.172 252.726 4.5 253.146C3.828 253.554 3.306 254.148 2.934 254.928C2.574 255.696 2.394 256.62 2.394 257.7C2.394 258.78 2.574 259.71 2.934 260.49C3.306 261.258 3.828 261.852 4.5 262.272C5.172 262.68 5.958 262.884 6.858 262.884C7.866 262.884 8.664 262.656 9.252 262.2C9.852 261.732 10.248 261.114 10.44 260.346H12.114C11.862 261.558 11.28 262.506 10.368 263.19C9.468 263.874 8.298 264.216 6.858 264.216ZM18.2651 264.216C17.4251 264.216 16.6691 264.024 15.9971 263.64C15.3251 263.256 14.7911 262.716 14.3951 262.02C14.0111 261.312 13.8191 260.484 13.8191 259.536C13.8191 258.588 14.0171 257.766 14.4131 257.07C14.8091 256.362 15.3431 255.816 16.0151 255.432C16.6991 255.048 17.4611 254.856 18.3011 254.856C19.1411 254.856 19.8971 255.048 20.5691 255.432C21.2411 255.816 21.7691 256.362 22.1531 257.07C22.5491 257.766 22.7471 258.588 22.7471 259.536C22.7471 260.484 22.5491 261.312 22.1531 262.02C21.7571 262.716 21.2171 263.256 20.5331 263.64C19.8611 264.024 19.1051 264.216 18.2651 264.216ZM18.2651 262.92C18.7811 262.92 19.2611 262.794 19.7051 262.542C20.1491 262.29 20.5091 261.912 20.7851 261.408C21.0611 260.904 21.1991 260.28 21.1991 259.536C21.1991 258.792 21.0611 258.168 20.7851 257.664C20.5211 257.16 20.1671 256.782 19.7231 256.53C19.2791 256.278 18.8051 256.152 18.3011 256.152C17.7851 256.152 17.3051 256.278 16.8611 256.53C16.4171 256.782 16.0571 257.16 15.7811 257.664C15.5051 258.168 15.3671 258.792 15.3671 259.536C15.3671 260.28 15.5051 260.904 15.7811 261.408C16.0571 261.912 16.4111 262.29 16.8431 262.542C17.2871 262.794 17.7611 262.92 18.2651 262.92ZM24.8494 264V255.072H26.2174L26.3074 256.674C26.5954 256.11 27.0094 255.666 27.5494 255.342C28.0894 255.018 28.7014 254.856 29.3854 254.856C30.4414 254.856 31.2814 255.18 31.9054 255.828C32.5414 256.464 32.8594 257.448 32.8594 258.78V264H31.3474V258.942C31.3474 257.082 30.5794 256.152 29.0434 256.152C28.2754 256.152 27.6334 256.434 27.1174 256.998C26.6134 257.55 26.3614 258.342 26.3614 259.374V264H24.8494ZM38.6782 264C37.8622 264 37.2202 263.802 36.7522 263.406C36.2842 263.01 36.0502 262.296 36.0502 261.264V256.35H34.5022V255.072H36.0502L36.2482 252.93H37.5622V255.072H40.1902V256.35H37.5622V261.264C37.5622 261.828 37.6762 262.212 37.9042 262.416C38.1322 262.608 38.5342 262.704 39.1102 262.704H40.0462V264H38.6782ZM42.1111 264V255.072H43.4791L43.6051 256.782C43.8811 256.194 44.3011 255.726 44.8651 255.378C45.4291 255.03 46.1251 254.856 46.9531 254.856V256.44H46.5391C46.0111 256.44 45.5251 256.536 45.0811 256.728C44.6371 256.908 44.2831 257.22 44.0191 257.664C43.7551 258.108 43.6231 258.72 43.6231 259.5V264H42.1111ZM51.6202 264.216C50.8762 264.216 50.2582 264.09 49.7662 263.838C49.2742 263.586 48.9082 263.25 48.6682 262.83C48.4282 262.41 48.3082 261.954 48.3082 261.462C48.3082 260.55 48.6562 259.848 49.3522 259.356C50.0482 258.864 50.9962 258.618 52.1962 258.618H54.6082V258.51C54.6082 257.73 54.4042 257.142 53.9962 256.746C53.5882 256.338 53.0422 256.134 52.3582 256.134C51.7702 256.134 51.2602 256.284 50.8282 256.584C50.4082 256.872 50.1442 257.298 50.0362 257.862H48.4882C48.5482 257.214 48.7642 256.668 49.1362 256.224C49.5202 255.78 49.9942 255.444 50.5582 255.216C51.1222 254.976 51.7222 254.856 52.3582 254.856C53.6062 254.856 54.5422 255.192 55.1662 255.864C55.8022 256.524 56.1202 257.406 56.1202 258.51V264H54.7702L54.6802 262.398C54.4282 262.902 54.0562 263.334 53.5642 263.694C53.0842 264.042 52.4362 264.216 51.6202 264.216ZM51.8542 262.938C52.4302 262.938 52.9222 262.788 53.3302 262.488C53.7502 262.188 54.0682 261.798 54.2842 261.318C54.5002 260.838 54.6082 260.334 54.6082 259.806V259.788H52.3222C51.4342 259.788 50.8042 259.944 50.4322 260.256C50.0722 260.556 49.8922 260.934 49.8922 261.39C49.8922 261.858 50.0602 262.236 50.3962 262.524C50.7442 262.8 51.2302 262.938 51.8542 262.938ZM62.4925 264.216C61.6405 264.216 60.8725 264.024 60.1885 263.64C59.5165 263.244 58.9825 262.698 58.5865 262.002C58.2025 261.294 58.0105 260.472 58.0105 259.536C58.0105 258.6 58.2025 257.784 58.5865 257.088C58.9825 256.38 59.5165 255.834 60.1885 255.45C60.8725 255.054 61.6405 254.856 62.4925 254.856C63.5485 254.856 64.4365 255.132 65.1565 255.684C65.8885 256.236 66.3505 256.974 66.5425 257.898H64.9945C64.8745 257.346 64.5805 256.92 64.1125 256.62C63.6445 256.308 63.0985 256.152 62.4745 256.152C61.9705 256.152 61.4965 256.278 61.0525 256.53C60.6085 256.782 60.2485 257.16 59.9725 257.664C59.6965 258.168 59.5585 258.792 59.5585 259.536C59.5585 260.28 59.6965 260.904 59.9725 261.408C60.2485 261.912 60.6085 262.296 61.0525 262.56C61.4965 262.812 61.9705 262.938 62.4745 262.938C63.0985 262.938 63.6445 262.788 64.1125 262.488C64.5805 262.176 64.8745 261.738 64.9945 261.174H66.5425C66.3625 262.074 65.9065 262.806 65.1745 263.37C64.4425 263.934 63.5485 264.216 62.4925 264.216ZM71.936 264C71.12 264 70.478 263.802 70.01 263.406C69.542 263.01 69.308 262.296 69.308 261.264V256.35H67.76V255.072H69.308L69.506 252.93H70.82V255.072H73.448V256.35H70.82V261.264C70.82 261.828 70.934 262.212 71.162 262.416C71.39 262.608 71.792 262.704 72.368 262.704H73.304V264H71.936ZM79.1369 264.216C78.2849 264.216 77.5289 264.024 76.8689 263.64C76.2089 263.244 75.6869 262.698 75.3029 262.002C74.9309 261.306 74.7449 260.484 74.7449 259.536C74.7449 258.6 74.9309 257.784 75.3029 257.088C75.6749 256.38 76.1909 255.834 76.8509 255.45C77.5229 255.054 78.2969 254.856 79.1729 254.856C80.0369 254.856 80.7809 255.054 81.4049 255.45C82.0409 255.834 82.5269 256.344 82.8629 256.98C83.1989 257.616 83.3669 258.3 83.3669 259.032C83.3669 259.164 83.3609 259.296 83.3489 259.428C83.3489 259.56 83.3489 259.71 83.3489 259.878H76.2389C76.2749 260.562 76.4309 261.132 76.7069 261.588C76.9949 262.032 77.3489 262.368 77.7689 262.596C78.2009 262.824 78.6569 262.938 79.1369 262.938C79.7609 262.938 80.2829 262.794 80.7029 262.506C81.1229 262.218 81.4289 261.828 81.6209 261.336H83.1149C82.8749 262.164 82.4129 262.854 81.7289 263.406C81.0569 263.946 80.1929 264.216 79.1369 264.216ZM79.1369 256.134C78.4169 256.134 77.7749 256.356 77.2109 256.8C76.6589 257.232 76.3409 257.868 76.2569 258.708H81.8729C81.8369 257.904 81.5609 257.274 81.0449 256.818C80.5289 256.362 79.8929 256.134 79.1369 256.134ZM89.4209 264.216C88.5329 264.216 87.7529 264.012 87.0809 263.604C86.4209 263.196 85.9049 262.638 85.5329 261.93C85.1729 261.222 84.9929 260.418 84.9929 259.518C84.9929 258.618 85.1789 257.82 85.5509 257.124C85.9229 256.416 86.4389 255.864 87.0989 255.468C87.7589 255.06 88.5389 254.856 89.4389 254.856C90.1709 254.856 90.8189 255.006 91.3829 255.306C91.9469 255.606 92.3849 256.026 92.6969 256.566V251.04H94.2089V264H92.8409L92.6969 262.524C92.4089 262.956 91.9949 263.346 91.4549 263.694C90.9149 264.042 90.2369 264.216 89.4209 264.216ZM89.5829 262.902C90.1829 262.902 90.7109 262.764 91.1669 262.488C91.6349 262.2 91.9949 261.804 92.2469 261.3C92.5109 260.796 92.6429 260.208 92.6429 259.536C92.6429 258.864 92.5109 258.276 92.2469 257.772C91.9949 257.268 91.6349 256.878 91.1669 256.602C90.7109 256.314 90.1829 256.17 89.5829 256.17C88.9949 256.17 88.4669 256.314 87.9989 256.602C87.5429 256.878 87.1829 257.268 86.9189 257.772C86.6669 258.276 86.5409 258.864 86.5409 259.536C86.5409 260.208 86.6669 260.796 86.9189 261.3C87.1829 261.804 87.5429 262.2 87.9989 262.488C88.4669 262.764 88.9949 262.902 89.5829 262.902ZM101.527 264V251.4H109.321V252.642H103.039V257.034H108.781V258.258H103.039V262.758H109.321V264H101.527ZM111.597 264V255.072H112.965L113.073 256.368C113.361 255.888 113.745 255.516 114.225 255.252C114.705 254.988 115.245 254.856 115.845 254.856C116.553 254.856 117.159 255 117.663 255.288C118.179 255.576 118.575 256.014 118.851 256.602C119.163 256.062 119.589 255.636 120.129 255.324C120.681 255.012 121.275 254.856 121.911 254.856C122.979 254.856 123.831 255.18 124.467 255.828C125.103 256.464 125.421 257.448 125.421 258.78V264H123.927V258.942C123.927 258.018 123.741 257.322 123.369 256.854C122.997 256.386 122.463 256.152 121.767 256.152C121.047 256.152 120.447 256.434 119.967 256.998C119.499 257.55 119.265 258.342 119.265 259.374V264H117.753V258.942C117.753 258.018 117.567 257.322 117.195 256.854C116.823 256.386 116.289 256.152 115.593 256.152C114.885 256.152 114.291 256.434 113.811 256.998C113.343 257.55 113.109 258.342 113.109 259.374V264H111.597ZM127.699 267.96V255.072H129.067L129.211 256.548C129.499 256.116 129.907 255.726 130.435 255.378C130.975 255.03 131.659 254.856 132.487 254.856C133.375 254.856 134.149 255.06 134.809 255.468C135.469 255.876 135.979 256.434 136.339 257.142C136.711 257.85 136.897 258.654 136.897 259.554C136.897 260.454 136.711 261.258 136.339 261.966C135.979 262.662 135.463 263.214 134.791 263.622C134.131 264.018 133.357 264.216 132.469 264.216C131.737 264.216 131.083 264.066 130.507 263.766C129.943 263.466 129.511 263.046 129.211 262.506V267.96H127.699ZM132.307 262.902C132.907 262.902 133.435 262.764 133.891 262.488C134.347 262.2 134.707 261.804 134.971 261.3C135.235 260.796 135.367 260.208 135.367 259.536C135.367 258.864 135.235 258.276 134.971 257.772C134.707 257.268 134.347 256.878 133.891 256.602C133.435 256.314 132.907 256.17 132.307 256.17C131.707 256.17 131.179 256.314 130.723 256.602C130.267 256.878 129.907 257.268 129.643 257.772C129.379 258.276 129.247 258.864 129.247 259.536C129.247 260.208 129.379 260.796 129.643 261.3C129.907 261.804 130.267 262.2 130.723 262.488C131.179 262.764 131.707 262.902 132.307 262.902ZM139.002 264V251.04H140.514V264H139.002ZM147.06 264.216C146.22 264.216 145.464 264.024 144.792 263.64C144.12 263.256 143.586 262.716 143.19 262.02C142.806 261.312 142.614 260.484 142.614 259.536C142.614 258.588 142.812 257.766 143.208 257.07C143.604 256.362 144.138 255.816 144.81 255.432C145.494 255.048 146.256 254.856 147.096 254.856C147.936 254.856 148.692 255.048 149.364 255.432C150.036 255.816 150.564 256.362 150.948 257.07C151.344 257.766 151.542 258.588 151.542 259.536C151.542 260.484 151.344 261.312 150.948 262.02C150.552 262.716 150.012 263.256 149.328 263.64C148.656 264.024 147.9 264.216 147.06 264.216ZM147.06 262.92C147.576 262.92 148.056 262.794 148.5 262.542C148.944 262.29 149.304 261.912 149.58 261.408C149.856 260.904 149.994 260.28 149.994 259.536C149.994 258.792 149.856 258.168 149.58 257.664C149.316 257.16 148.962 256.782 148.518 256.53C148.074 256.278 147.6 256.152 147.096 256.152C146.58 256.152 146.1 256.278 145.656 256.53C145.212 256.782 144.852 257.16 144.576 257.664C144.3 258.168 144.162 258.792 144.162 259.536C144.162 260.28 144.3 260.904 144.576 261.408C144.852 261.912 145.206 262.29 145.638 262.542C146.082 262.794 146.556 262.92 147.06 262.92ZM153.896 267.96L156.11 263.136H155.588L152.042 255.072H153.68L156.632 262.02L159.764 255.072H161.33L155.48 267.96H153.896ZM166.096 264.216C165.244 264.216 164.488 264.024 163.828 263.64C163.168 263.244 162.646 262.698 162.262 262.002C161.89 261.306 161.704 260.484 161.704 259.536C161.704 258.6 161.89 257.784 162.262 257.088C162.634 256.38 163.15 255.834 163.81 255.45C164.482 255.054 165.256 254.856 166.132 254.856C166.996 254.856 167.74 255.054 168.364 255.45C169 255.834 169.486 256.344 169.822 256.98C170.158 257.616 170.326 258.3 170.326 259.032C170.326 259.164 170.32 259.296 170.308 259.428C170.308 259.56 170.308 259.71 170.308 259.878H163.198C163.234 260.562 163.39 261.132 163.666 261.588C163.954 262.032 164.308 262.368 164.728 262.596C165.16 262.824 165.616 262.938 166.096 262.938C166.72 262.938 167.242 262.794 167.662 262.506C168.082 262.218 168.388 261.828 168.58 261.336H170.074C169.834 262.164 169.372 262.854 168.688 263.406C168.016 263.946 167.152 264.216 166.096 264.216ZM166.096 256.134C165.376 256.134 164.734 256.356 164.17 256.8C163.618 257.232 163.3 257.868 163.216 258.708H168.832C168.796 257.904 168.52 257.274 168.004 256.818C167.488 256.362 166.852 256.134 166.096 256.134ZM176.344 264.216C175.492 264.216 174.736 264.024 174.076 263.64C173.416 263.244 172.894 262.698 172.51 262.002C172.138 261.306 171.952 260.484 171.952 259.536C171.952 258.6 172.138 257.784 172.51 257.088C172.882 256.38 173.398 255.834 174.058 255.45C174.73 255.054 175.504 254.856 176.38 254.856C177.244 254.856 177.988 255.054 178.612 255.45C179.248 255.834 179.734 256.344 180.07 256.98C180.406 257.616 180.574 258.3 180.574 259.032C180.574 259.164 180.568 259.296 180.556 259.428C180.556 259.56 180.556 259.71 180.556 259.878H173.446C173.482 260.562 173.638 261.132 173.914 261.588C174.202 262.032 174.556 262.368 174.976 262.596C175.408 262.824 175.864 262.938 176.344 262.938C176.968 262.938 177.49 262.794 177.91 262.506C178.33 262.218 178.636 261.828 178.828 261.336H180.322C180.082 262.164 179.62 262.854 178.936 263.406C178.264 263.946 177.4 264.216 176.344 264.216ZM176.344 256.134C175.624 256.134 174.982 256.356 174.418 256.8C173.866 257.232 173.548 257.868 173.464 258.708H179.08C179.044 257.904 178.768 257.274 178.252 256.818C177.736 256.362 177.1 256.134 176.344 256.134Z" fill="#F5F5F5"/>
<path d="M13.346 386.216C12.422 386.216 11.618 386.048 10.934 385.712C10.25 385.376 9.722 384.908 9.35 384.308C8.978 383.708 8.792 383.012 8.792 382.22H10.376C10.376 382.712 10.49 383.168 10.718 383.588C10.946 383.996 11.276 384.326 11.708 384.578C12.152 384.818 12.698 384.938 13.346 384.938C14.198 384.938 14.858 384.734 15.326 384.326C15.794 383.918 16.028 383.408 16.028 382.796C16.028 382.292 15.92 381.89 15.704 381.59C15.488 381.278 15.194 381.026 14.822 380.834C14.462 380.642 14.042 380.474 13.562 380.33C13.094 380.186 12.602 380.024 12.086 379.844C11.114 379.508 10.394 379.094 9.926 378.602C9.458 378.098 9.224 377.444 9.224 376.64C9.212 375.968 9.368 375.374 9.692 374.858C10.016 374.33 10.472 373.922 11.06 373.634C11.66 373.334 12.368 373.184 13.184 373.184C13.988 373.184 14.684 373.334 15.272 373.634C15.872 373.934 16.334 374.348 16.658 374.876C16.994 375.404 17.168 376.004 17.18 376.676H15.596C15.596 376.328 15.506 375.986 15.326 375.65C15.146 375.302 14.87 375.02 14.498 374.804C14.138 374.588 13.682 374.48 13.13 374.48C12.446 374.468 11.882 374.642 11.438 375.002C11.006 375.362 10.79 375.86 10.79 376.496C10.79 377.036 10.94 377.45 11.24 377.738C11.552 378.026 11.984 378.266 12.536 378.458C13.088 378.638 13.724 378.848 14.444 379.088C15.044 379.304 15.584 379.556 16.064 379.844C16.544 380.132 16.916 380.504 17.18 380.96C17.456 381.416 17.594 381.998 17.594 382.706C17.594 383.306 17.438 383.876 17.126 384.416C16.814 384.944 16.34 385.376 15.704 385.712C15.08 386.048 14.294 386.216 13.346 386.216ZM23.1763 386C22.3603 386 21.7183 385.802 21.2503 385.406C20.7823 385.01 20.5483 384.296 20.5483 383.264V378.35H19.0002V377.072H20.5483L20.7463 374.93H22.0603V377.072H24.6883V378.35H22.0603V383.264C22.0603 383.828 22.1743 384.212 22.4023 384.416C22.6303 384.608 23.0323 384.704 23.6083 384.704H24.5443V386H23.1763ZM29.5792 386.216C28.8352 386.216 28.2172 386.09 27.7252 385.838C27.2332 385.586 26.8672 385.25 26.6272 384.83C26.3872 384.41 26.2672 383.954 26.2672 383.462C26.2672 382.55 26.6152 381.848 27.3112 381.356C28.0072 380.864 28.9552 380.618 30.1552 380.618H32.5672V380.51C32.5672 379.73 32.3632 379.142 31.9552 378.746C31.5472 378.338 31.0012 378.134 30.3172 378.134C29.7292 378.134 29.2192 378.284 28.7872 378.584C28.3672 378.872 28.1032 379.298 27.9952 379.862H26.4472C26.5072 379.214 26.7232 378.668 27.0952 378.224C27.4792 377.78 27.9532 377.444 28.5172 377.216C29.0812 376.976 29.6812 376.856 30.3172 376.856C31.5652 376.856 32.5012 377.192 33.1252 377.864C33.7612 378.524 34.0792 379.406 34.0792 380.51V386H32.7292L32.6392 384.398C32.3872 384.902 32.0152 385.334 31.5232 385.694C31.0432 386.042 30.3952 386.216 29.5792 386.216ZM29.8132 384.938C30.3892 384.938 30.8812 384.788 31.2892 384.488C31.7092 384.188 32.0272 383.798 32.2432 383.318C32.4592 382.838 32.5672 382.334 32.5672 381.806V381.788H30.2812C29.3932 381.788 28.7632 381.944 28.3912 382.256C28.0312 382.556 27.8512 382.934 27.8512 383.39C27.8512 383.858 28.0192 384.236 28.3552 384.524C28.7032 384.8 29.1892 384.938 29.8132 384.938ZM36.3475 386V373.04H37.8595V380.834L41.5135 377.072H43.3675L39.4075 381.104L43.8715 386H41.9455L37.8595 381.374V386H36.3475ZM48.7814 386.216C47.9294 386.216 47.1734 386.024 46.5134 385.64C45.8534 385.244 45.3314 384.698 44.9474 384.002C44.5754 383.306 44.3894 382.484 44.3894 381.536C44.3894 380.6 44.5754 379.784 44.9474 379.088C45.3194 378.38 45.8354 377.834 46.4954 377.45C47.1674 377.054 47.9414 376.856 48.8174 376.856C49.6814 376.856 50.4254 377.054 51.0494 377.45C51.6854 377.834 52.1714 378.344 52.5074 378.98C52.8434 379.616 53.0114 380.3 53.0114 381.032C53.0114 381.164 53.0054 381.296 52.9934 381.428C52.9934 381.56 52.9934 381.71 52.9934 381.878H45.8834C45.9194 382.562 46.0754 383.132 46.3514 383.588C46.6394 384.032 46.9934 384.368 47.4134 384.596C47.8454 384.824 48.3014 384.938 48.7814 384.938C49.4054 384.938 49.9274 384.794 50.3474 384.506C50.7674 384.218 51.0734 383.828 51.2654 383.336H52.7594C52.5194 384.164 52.0574 384.854 51.3734 385.406C50.7014 385.946 49.8374 386.216 48.7814 386.216ZM48.7814 378.134C48.0614 378.134 47.4194 378.356 46.8554 378.8C46.3034 379.232 45.9854 379.868 45.9014 380.708H51.5174C51.4814 379.904 51.2054 379.274 50.6894 378.818C50.1734 378.362 49.5374 378.134 48.7814 378.134ZM55.0154 386V373.04H56.5274V378.602C56.8274 378.05 57.2534 377.624 57.8054 377.324C58.3574 377.012 58.9574 376.856 59.6054 376.856C60.6374 376.856 61.4654 377.18 62.0894 377.828C62.7134 378.464 63.0254 379.448 63.0254 380.78V386H61.5314V380.942C61.5314 379.082 60.7814 378.152 59.2814 378.152C58.5014 378.152 57.8474 378.434 57.3194 378.998C56.7914 379.55 56.5274 380.342 56.5274 381.374V386H55.0154ZM69.3842 386.216C68.5442 386.216 67.7882 386.024 67.1162 385.64C66.4442 385.256 65.9102 384.716 65.5142 384.02C65.1302 383.312 64.9382 382.484 64.9382 381.536C64.9382 380.588 65.1362 379.766 65.5322 379.07C65.9282 378.362 66.4622 377.816 67.1342 377.432C67.8182 377.048 68.5802 376.856 69.4202 376.856C70.2602 376.856 71.0162 377.048 71.6882 377.432C72.3602 377.816 72.8882 378.362 73.2722 379.07C73.6682 379.766 73.8662 380.588 73.8662 381.536C73.8662 382.484 73.6682 383.312 73.2722 384.02C72.8762 384.716 72.3362 385.256 71.6522 385.64C70.9802 386.024 70.2242 386.216 69.3842 386.216ZM69.3842 384.92C69.9002 384.92 70.3802 384.794 70.8242 384.542C71.2682 384.29 71.6282 383.912 71.9042 383.408C72.1802 382.904 72.3182 382.28 72.3182 381.536C72.3182 380.792 72.1802 380.168 71.9042 379.664C71.6402 379.16 71.2862 378.782 70.8422 378.53C70.3982 378.278 69.9242 378.152 69.4202 378.152C68.9042 378.152 68.4242 378.278 67.9802 378.53C67.5362 378.782 67.1762 379.16 66.9002 379.664C66.6242 380.168 66.4862 380.792 66.4862 381.536C66.4862 382.28 66.6242 382.904 66.9002 383.408C67.1762 383.912 67.5302 384.29 67.9622 384.542C68.4062 384.794 68.8802 384.92 69.3842 384.92ZM75.9686 386V373.04H77.4806V386H75.9686ZM84.0088 386.216C83.1208 386.216 82.3408 386.012 81.6688 385.604C81.0088 385.196 80.4928 384.638 80.1208 383.93C79.7608 383.222 79.5808 382.418 79.5808 381.518C79.5808 380.618 79.7668 379.82 80.1388 379.124C80.5108 378.416 81.0268 377.864 81.6868 377.468C82.3468 377.06 83.1268 376.856 84.0268 376.856C84.7588 376.856 85.4068 377.006 85.9708 377.306C86.5348 377.606 86.9728 378.026 87.2848 378.566V373.04H88.7968V386H87.4288L87.2848 384.524C86.9968 384.956 86.5828 385.346 86.0428 385.694C85.5028 386.042 84.8248 386.216 84.0088 386.216ZM84.1708 384.902C84.7708 384.902 85.2988 384.764 85.7548 384.488C86.2228 384.2 86.5828 383.804 86.8348 383.3C87.0988 382.796 87.2308 382.208 87.2308 381.536C87.2308 380.864 87.0988 380.276 86.8348 379.772C86.5828 379.268 86.2228 378.878 85.7548 378.602C85.2988 378.314 84.7708 378.17 84.1708 378.17C83.5828 378.17 83.0548 378.314 82.5868 378.602C82.1308 378.878 81.7708 379.268 81.5068 379.772C81.2548 380.276 81.1288 380.864 81.1288 381.536C81.1288 382.208 81.2548 382.796 81.5068 383.3C81.7708 383.804 82.1308 384.2 82.5868 384.488C83.0548 384.764 83.5828 384.902 84.1708 384.902ZM95.2755 386.216C94.4235 386.216 93.6675 386.024 93.0075 385.64C92.3475 385.244 91.8255 384.698 91.4415 384.002C91.0695 383.306 90.8835 382.484 90.8835 381.536C90.8835 380.6 91.0695 379.784 91.4415 379.088C91.8135 378.38 92.3295 377.834 92.9895 377.45C93.6615 377.054 94.4355 376.856 95.3115 376.856C96.1755 376.856 96.9195 377.054 97.5435 377.45C98.1795 377.834 98.6655 378.344 99.0015 378.98C99.3375 379.616 99.5055 380.3 99.5055 381.032C99.5055 381.164 99.4995 381.296 99.4875 381.428C99.4875 381.56 99.4875 381.71 99.4875 381.878H92.3775C92.4135 382.562 92.5695 383.132 92.8455 383.588C93.1335 384.032 93.4875 384.368 93.9075 384.596C94.3395 384.824 94.7955 384.938 95.2755 384.938C95.8995 384.938 96.4215 384.794 96.8415 384.506C97.2615 384.218 97.5675 383.828 97.7595 383.336H99.2535C99.0135 384.164 98.5515 384.854 97.8675 385.406C97.1955 385.946 96.3315 386.216 95.2755 386.216ZM95.2755 378.134C94.5555 378.134 93.9135 378.356 93.3495 378.8C92.7975 379.232 92.4795 379.868 92.3955 380.708H98.0115C97.9755 379.904 97.6995 379.274 97.1835 378.818C96.6675 378.362 96.0315 378.134 95.2755 378.134ZM101.51 386V377.072H102.878L103.004 378.782C103.28 378.194 103.7 377.726 104.264 377.378C104.828 377.03 105.524 376.856 106.352 376.856V378.44H105.938C105.41 378.44 104.924 378.536 104.48 378.728C104.036 378.908 103.682 379.22 103.418 379.664C103.154 380.108 103.022 380.72 103.022 381.5V386H101.51ZM111.469 386.216C110.401 386.216 109.513 385.946 108.805 385.406C108.097 384.866 107.683 384.134 107.563 383.21H109.111C109.207 383.678 109.453 384.086 109.849 384.434C110.257 384.77 110.803 384.938 111.487 384.938C112.123 384.938 112.591 384.806 112.891 384.542C113.191 384.266 113.341 383.942 113.341 383.57C113.341 383.03 113.143 382.67 112.747 382.49C112.363 382.31 111.817 382.148 111.109 382.004C110.629 381.908 110.149 381.77 109.669 381.59C109.189 381.41 108.787 381.158 108.463 380.834C108.139 380.498 107.977 380.06 107.977 379.52C107.977 378.74 108.265 378.104 108.841 377.612C109.429 377.108 110.221 376.856 111.217 376.856C112.165 376.856 112.939 377.096 113.539 377.576C114.151 378.044 114.505 378.716 114.601 379.592H113.107C113.047 379.136 112.849 378.782 112.513 378.53C112.189 378.266 111.751 378.134 111.199 378.134C110.659 378.134 110.239 378.248 109.939 378.476C109.651 378.704 109.507 379.004 109.507 379.376C109.507 379.736 109.693 380.018 110.065 380.222C110.449 380.426 110.965 380.6 111.613 380.744C112.165 380.864 112.687 381.014 113.179 381.194C113.683 381.362 114.091 381.62 114.403 381.968C114.727 382.304 114.889 382.796 114.889 383.444C114.901 384.248 114.595 384.914 113.971 385.442C113.359 385.958 112.525 386.216 111.469 386.216Z" fill="#F5F5F5"/>
<path d="M0 55C0 51.134 3.13401 48 7 48H134C137.866 48 141 51.134 141 55C141 58.866 137.866 62 134 62H7C3.134 62 0 58.866 0 55Z" fill="#1D1C20"/>
<path d="M0 178C0 174.134 3.13401 171 7 171H134C137.866 171 141 174.134 141 178C141 181.866 137.866 185 134 185H7C3.134 185 0 181.866 0 178Z" fill="#1D1C20"/>
<path d="M0 301C0 297.134 3.13401 294 7 294H134C137.866 294 141 297.134 141 301C141 304.866 137.866 308 134 308H7C3.134 308 0 304.866 0 301Z" fill="#1D1C20"/>
<path d="M8 423.5C8 419.91 10.9101 417 14.5 417H142.5C146.09 417 149 419.91 149 423.5C149 427.09 146.09 430 142.5 430H14.5C10.9102 430 8 427.09 8 423.5Z" fill="#1D1C20"/>
<path d="M0 83C0 79.134 3.13401 76 7 76H273C276.866 76 280 79.134 280 83C280 86.866 276.866 90 273 90H6.99999C3.134 90 0 86.866 0 83Z" fill="#4F4F4F"/>
<path d="M0 205.5C0 201.91 2.91015 199 6.5 199H273.5C277.09 199 280 201.91 280 205.5C280 209.09 277.09 212 273.5 212H6.5C2.91015 212 0 209.09 0 205.5Z" fill="#4F4F4F"/>
<path d="M0 328C0 324.134 3.13401 321 7 321H273C276.866 321 280 324.134 280 328C280 331.866 276.866 335 273 335H6.99999C3.134 335 0 331.866 0 328Z" fill="#4F4F4F"/>
<path d="M6 451C6 447.134 9.13401 444 13 444H279C282.866 444 286 447.134 286 451C286 454.866 282.866 458 279 458H13C9.134 458 6 454.866 6 451Z" fill="#4F4F4F"/>
</svg>
